<?xml version="1.0" encoding="UTF-8" standalone="no"?>
<svg
   version="1.1"
   width="640"
   height="480"
   viewBox="0 0 640 480"
   xml:space="preserve"
   id="svg20"
   sodipodi:docname="d91db2dc227155b70ea43ac84b798083.svg"
   xmlns:inkscape="http://www.inkscape.org/namespaces/inkscape"
   xmlns:sodipodi="http://sodipodi.sourceforge.net/DTD/sodipodi-0.dtd"
   xmlns="http://www.w3.org/2000/svg"
   xmlns:svg="http://www.w3.org/2000/svg"><sodipodi:namedview
   id="namedview22"
   pagecolor="#ffffff"
   bordercolor="#666666"
   borderopacity="1.0"
   inkscape:pageshadow="2"
   inkscape:pageopacity="0.0"
   inkscape:pagecheckerboard="0" />
<desc
   id="desc2">Created with Fabric.js 3.6.6</desc>
<defs
   id="defs4">
</defs>
<g
   transform="matrix(1 0 0 1 384 159.84)"
   id="g18">
<g
   style=""
   id="g16">
		<g
   transform="matrix(2.01 0 0 2.01 -63.89 -0.15)"
   id="g8">
<path
   style="stroke: none; stroke-width: 1; stroke-dasharray: none; stroke-linecap: butt; stroke-dashoffset: 0; stroke-linejoin: miter; stroke-miterlimit: 4; fill: rgb(255,58,94); fill-rule: nonzero; opacity: 1;"
   transform=" translate(-132, -17.5)"
   d="M 124.714 6.8084 C 124.277 6.8084 123.933 6.87083 123.683 6.9957 C 123.454 7.12056 123.288 7.40151 123.184 7.83854 C 123.1 8.27557 123.059 8.97273 123.059 9.93003 V 12.9892 C 123.059 13.7801 122.934 14.4668 122.684 15.0495 C 122.455 15.6114 122.184 16.0693 121.872 16.423 C 121.559 16.7768 121.268 17.0474 120.997 17.2347 C 121.226 17.4012 121.497 17.6613 121.809 18.0151 C 122.142 18.348 122.434 18.7643 122.684 19.2637 C 122.934 19.7424 123.059 20.2835 123.059 20.887 V 24.6329 C 123.059 25.5694 123.1 26.2562 123.184 26.6932 C 123.288 27.1302 123.454 27.4112 123.683 27.5361 C 123.933 27.6609 124.277 27.7234 124.714 27.7234 H 125.87 V 31.5318 H 123.402 C 122.819 31.5318 122.236 31.5213 121.653 31.5005 C 121.091 31.4797 120.57 31.3653 120.092 31.1572 C 119.613 30.9699 119.227 30.6057 118.936 30.0646 C 118.665 29.5443 118.53 28.7847 118.53 27.7858 V 22.6351 C 118.53 22.0108 118.436 21.4281 118.249 20.887 C 118.061 20.3251 117.78 19.8672 117.405 19.5135 C 117.031 19.1597 116.562 18.9828 116 18.9828 V 15.3617 C 116.562 15.3409 117.031 15.164 117.405 14.831 C 117.78 14.4772 118.061 14.0298 118.249 13.4887 C 118.436 12.9268 118.53 12.3337 118.53 11.7094 V 6.77718 C 118.53 5.77826 118.665 5.01866 118.936 4.49839 C 119.207 3.97811 119.571 3.61392 120.029 3.40581 C 120.508 3.1977 121.039 3.08324 121.622 3.06243 C 122.205 3.02081 122.798 3 123.402 3 H 125.87 V 6.8084 H 124.714 Z M 148 17.5156 C 148 19.6383 147.74 21.6258 147.219 23.4779 C 146.719 25.3301 146.074 26.9742 145.283 28.4101 C 144.492 29.8669 143.648 31.0635 142.753 32 L 139.161 30.3455 C 139.973 29.409 140.702 28.3061 141.347 27.0366 C 141.993 25.7879 142.503 24.3728 142.878 22.7912 C 143.253 21.1887 143.44 19.4302 143.44 17.5156 C 143.44 15.601 143.253 13.8529 142.878 12.2713 C 142.503 10.6688 141.993 9.24327 141.347 7.99462 C 140.702 6.72515 139.973 5.63258 139.161 4.7169 L 142.753 3.03122 C 143.648 3.96771 144.492 5.16434 145.283 6.6211 C 146.074 8.07786 146.719 9.73233 147.219 11.5845 C 147.74 13.4159 148 15.3929 148 17.5156 Z"
   stroke-linecap="round"
   id="path6" />
</g>
		<g
   transform="matrix(1 0 0 1 0 3.85)"
   style=""
   id="g14">
		<text
   xml:space="preserve"
   font-family="'Open Sans', sans-serif"
   font-size="18"
   font-style="normal"
   font-weight="normal"
   style="stroke: none; stroke-width: 1; stroke-dasharray: none; stroke-linecap: butt; stroke-dashoffset: 0; stroke-linejoin: miter; stroke-miterlimit: 4; fill: rgb(255,255,255); fill-rule: nonzero; opacity: 1; white-space: pre;"
   id="text12"><tspan
     x="-254.5"
     y="14.45"
     style="font-family: 'Oswald', sans-serif; font-size: 46px; white-space: pre; "
     id="tspan10">HENRICO       E</tspan></text>
</g>
</g>
</g>
</svg>
